<svg width="24" height="24" viewBox="0 0 24 24" fill="none" xmlns="http://www.w3.org/2000/svg">
  <rect width="24" height="24" rx="3" fill="#0084E8"/>
  <path
    d="M7.2 14.6c-2 0-3.7-1.6-3.7-3.6 0-1.9 1.5-3.4 3.4-3.6a4.9 4.9 0 0 1 4.8-3.4c2 0 3.8 1.1 4.7 2.9 1.9.2 3.4 1.8 3.4 3.7 0 2-1.7 3.6-3.8 3.6H7.2Z"
    fill="#FFFFFF"
  />
  <path
    d="M12 7.3v9.4"
    stroke="#FFFFFF"
    stroke-width="1.6"
    stroke-linecap="round"
  />
  <path
    d="M10.6 9 12 7.6 13.4 9"
    stroke="#FFFFFF"
    stroke-width="1.6"
    stroke-linecap="round"
    stroke-linejoin="round"
  />
  <path
    d="M10.6 15 12 16.4 13.4 15"
    stroke="#FFFFFF"
    stroke-width="1.6"
    stroke-linecap="round"
    stroke-linejoin="round"
  />
</svg>
