<svg width="24" height="24" viewBox="0 0 24 24" fill="none" xmlns="http://www.w3.org/2000/svg">
  <path
    d="M6.6 16.4H15c2.35 0 4.25-1.74 4.25-3.9 0-1.86-1.3-3.43-3.05-3.85C15.7 6.4 13.74 5 11.4 5 9.22 5 7.4 6.36 6.9 8.28c-2.07.16-3.7 1.86-3.7 3.94 0 2.27 1.77 4.18 3.4 4.18Z"
    fill="#DDE9FF"
  />
  <path
    d="M9.5 9.4C9.5 8.32 11.46 7.6 14 7.6c2.54 0 4.5.72 4.5 1.8 0 1.08-1.96 1.8-4.5 1.8-2.54 0-4.5-.72-4.5-1.8Z"
    fill="#FFFFFF"
    stroke="#1D2A4B"
    stroke-width="1.6"
  />
  <path
    d="M9.5 9.4V15c0 1.08 1.96 1.8 4.5 1.8 2.54 0 4.5-.72 4.5-1.8V9.4"
    fill="#F4F7FF"
    stroke="#1D2A4B"
    stroke-width="1.6"
  />
  <path
    d="M9.5 12.5c0 1.08 1.96 1.8 4.5 1.8 2.54 0 4.5-.72 4.5-1.8"
    stroke="#1D2A4B"
    stroke-width="1.6"
    stroke-linecap="round"
  />
</svg>
